<svg height="512" viewBox="0 0 58 58" width="512" xmlns="http://www.w3.org/2000/svg"><g id="006---Developers-Desk" fill="none"><path id="Path" d="m49 22-1 12v1h-8v-1l-1-12v-2h10z" fill="#edc494"/><path id="Path" d="m17 43v13c0 .5522847-.4477153 1-1 1h-6v-14z" fill="#4c392c"/><path id="Path" d="m41 43v13c0 .5522847.4477153 1 1 1h6v-14z" fill="#4c392c"/><path id="Path" d="m11 43v14.16c-.0481136.5060483-.4932424.8799564-1 .84h-4c-.5067576.0399564-.95188636-.3339517-1-.84v-14.16z" fill="#604533"/><path id="Path" d="m53 43v14.16c-.0481136.5060483-.4932424.8799564-1 .84h-4c-.5067576.0399564-.9518864-.3339517-1-.84v-14.16z" fill="#604533"/><path id="Path" d="m56 39v4c0 .5522847-.4477153 1-1 1h-52c-.55228475 0-1-.4477153-1-1v-4z" fill="#7c5a43"/><path id="Rectangle" d="m7 30h18v5h-18z" fill="#b9bfcc"/><path id="Rectangle" d="m12 21h8v6h-8z" fill="#b9bfcc"/><rect id="Rectangle" fill="#9e714f" height="6" rx="1" width="58" y="34"/><path id="Path" d="m7 30 5-4h8l5 4z" fill="#ccd0da"/><path id="Path" d="m30 17v3c-.0032948 1.1032019-.8967981 1.9967052-2 2h-24c-1.10320187-.0032948-1.9967052-.8967981-2-2v-3l1-1h26z" fill="#ccd0da"/><path id="Path" d="m30 2v15h-28v-15c.0032948-1.10320187.89679813-1.9967052 2-2h24c1.1032019.0032948 1.9967052.89679813 2 2z" fill="#31b791"/><rect id="Rectangle" fill="#7c5a43" height="4" rx="1" width="14" x="37" y="18"/><path id="Path" d="m49 18-.811-3.243c-.1114591-.4449311-.5113206-.7569879-.97-.757h-6.438c-.4586794.0000121-.8585409.3120689-.97.757l-.811 3.243" fill="#9e714f"/><g fill="#fff"><path id="Path" d="m11 12c-.2651948-.0000566-.5195073-.1054506-.707-.293l-2-2c-.39038194-.39049985-.39038194-1.02350015 0-1.414l2-2c.2510745-.25995658.6228779-.3642126.9725073-.27269716.3496295.09151544.6226744.3645604.7141899.71418984.0915154.34962943-.0127406.72143285-.2726972.97250732l-1.293 1.293 1.293 1.293c.2859079.2859943.3714219.7160366.216678 1.0896546-.1547439.3736179-.5192821.6172591-.923678.6173454z"/><path id="Path" d="m21 12c-.4043959-.0000863-.7689341-.2437275-.923678-.6173454-.1547439-.373618-.0692299-.8036603.216678-1.0896546l1.293-1.293-1.293-1.293c-.2599566-.25107447-.3642126-.62287789-.2726972-.97250732.0915155-.34962944.3645604-.6226744.7141899-.71418984.3496294-.09151544.7214328.01274058.9725073.27269716l2 2c.3903819.39049985.3903819 1.02350015 0 1.414l-2 2c-.1874927.1875494-.4418052.2929434-.707.293z"/><path id="Path" d="m15 13c-.3212672-.0002439-.6228543-.1548257-.8106349-.4155001s-.2388857-.5956946-.1373651-.9004999l2-6c.1128959-.33940232.398285-.59279374.748664-.66472416s.712517.0485281.95.316c.2374831.26747191.3142319.64132185.201336.98072416l-2 6c-.1364192.4095928-.5202889.6853983-.952.684z"/></g><path id="Path" d="m42 11c-.5522847 0-1-.4477153-1-1 0-.562-.217-.8-.707-1.293-.8083785-.66807466-1.2813846-1.65835102-1.293-2.707.0116154-1.04864898.4846215-2.03892534 1.293-2.707.49-.493.707-.731.707-1.293 0-.55228475.4477153-1 1-1s1 .44771525 1 1c-.0116154 1.04864898-.4846215 2.03892534-1.293 2.707-.49.493-.707.731-.707 1.293s.217.8.707 1.293c.8083785.66807466 1.2813846 1.65835102 1.293 2.707 0 .5522847-.4477153 1-1 1z" fill="#d6dbe3"/><path id="Path" d="m47 11c-.5522847 0-1-.4477153-1-1 0-.562-.217-.8-.707-1.293-.8083785-.66807466-1.2813846-1.65835102-1.293-2.707.0116154-1.04864898.4846215-2.03892534 1.293-2.707.49-.493.707-.731.707-1.293 0-.55228475.4477153-1 1-1s1 .44771525 1 1c-.0116154 1.04864898-.4846215 2.03892534-1.293 2.707-.49.493-.707.731-.707 1.293s.217.8.707 1.293c.8083785.66807466 1.2813846 1.65835102 1.293 2.707 0 .5522847-.4477153 1-1 1z" fill="#d6dbe3"/></g></svg>